<mxfile host="app.diagrams.net" modified="2023-05-08T22:12:07.041Z" agent="Mozilla/5.0 (Windows NT 10.0; Win64; x64) AppleWebKit/537.36 (KHTML, like Gecko) Chrome/112.0.0.0 Safari/537.36 OPR/98.0.0.0" etag="iaZhdyrCiUjgARLn7pH4" version="21.2.9" type="github">
  <diagram name="Page-1" id="cAH-7YcV7QoOERKowcvK">
    <mxGraphModel dx="1634" dy="766" grid="1" gridSize="10" guides="1" tooltips="1" connect="1" arrows="1" fold="1" page="1" pageScale="1" pageWidth="3300" pageHeight="4681" math="0" shadow="0">
      <root>
        <mxCell id="0" />
        <mxCell id="1" parent="0" />
      </root>
    </mxGraphModel>
  </diagram>
</mxfile>
